<svg width="264" height="380" viewBox="0 0 264 380" fill="none" xmlns="http://www.w3.org/2000/svg">
<path d="M82.7402 169.63C82.7402 193.7 102.25 213.22 126.32 213.22C150.39 213.22 169.91 193.71 169.91 169.63V155.25H82.7402V169.63Z" stroke="#A057A2" stroke-width="20.23" stroke-miterlimit="10"/>
<path d="M68.3603 155.25C44.2903 155.25 24.7803 135.74 24.7803 111.67C24.7803 87.6001 44.2903 68.0901 68.3603 68.0901H82.7403V155.26H68.3603V155.25Z" stroke="#A057A2" stroke-width="20.23" stroke-miterlimit="10"/>
<path d="M184.29 68.0801H169.91V53.7001C169.91 29.6301 150.4 10.1101 126.33 10.1101C102.26 10.1101 82.7402 29.6201 82.7402 53.7001V155.25H184.29C208.36 155.25 227.87 135.74 227.87 111.67C227.87 87.6001 208.36 68.0801 184.29 68.0801Z" stroke="#EE2D6C" stroke-width="20.23" stroke-miterlimit="10"/>
<path d="M11.31 352.72V355.29H3.15V360.96H9.51V363.54H3.15V371.94H0V352.72H11.31Z" fill="#A057A2"/>
<path d="M14.1502 360.19C14.7902 359.01 15.6502 358.09 16.7502 357.44C17.8502 356.79 19.0602 356.46 20.3902 356.46C21.5902 356.46 22.6402 356.7 23.5302 357.17C24.4202 357.64 25.1402 358.23 25.6702 358.93V356.72H28.8502V371.96H25.6702V369.69C25.1402 370.41 24.4102 371.01 23.4902 371.49C22.5702 371.97 21.5202 372.21 20.3402 372.21C19.0302 372.21 17.8302 371.87 16.7402 371.2C15.6502 370.53 14.7902 369.59 14.1502 368.38C13.5102 367.17 13.2002 365.8 13.2002 364.27C13.2002 362.74 13.5202 361.38 14.1502 360.2M25.0202 361.57C24.5902 360.8 24.0202 360.21 23.3202 359.8C22.6202 359.4 21.8602 359.19 21.0502 359.19C20.2402 359.19 19.4802 359.39 18.7802 359.79C18.0802 360.19 17.5102 360.77 17.0802 361.53C16.6502 362.3 16.4302 363.2 16.4302 364.26C16.4302 365.32 16.6502 366.23 17.0802 367.02C17.5102 367.81 18.0802 368.42 18.7902 368.83C19.5002 369.25 20.2502 369.45 21.0402 369.45C21.8302 369.45 22.6102 369.25 23.3102 368.84C24.0102 368.44 24.5802 367.84 25.0102 367.06C25.4402 366.28 25.6602 365.36 25.6602 364.31C25.6602 363.26 25.4402 362.35 25.0102 361.57" fill="#A057A2"/>
<path d="M54.67 357.2C55.62 357.7 56.37 358.44 56.91 359.41C57.45 360.39 57.73 361.57 57.73 362.95V371.94H54.61V363.42C54.61 362.05 54.27 361.01 53.59 360.28C52.91 359.55 51.98 359.19 50.8 359.19C49.62 359.19 48.68 359.55 47.99 360.28C47.3 361.01 46.95 362.05 46.95 363.42V371.94H43.83V363.42C43.83 362.05 43.49 361.01 42.81 360.28C42.13 359.55 41.2 359.19 40.02 359.19C38.84 359.19 37.9 359.55 37.21 360.28C36.52 361.01 36.17 362.05 36.17 363.42V371.94H33.02V356.7H36.17V358.44C36.69 357.81 37.34 357.33 38.13 356.97C38.92 356.62 39.77 356.45 40.67 356.45C41.89 356.45 42.98 356.71 43.93 357.22C44.89 357.74 45.63 358.48 46.14 359.46C46.6 358.54 47.32 357.8 48.3 357.26C49.28 356.72 50.33 356.44 51.45 356.44C52.65 356.44 53.72 356.69 54.67 357.19" fill="#A057A2"/>
<path d="M61.9003 354.1C61.5103 353.71 61.3203 353.23 61.3203 352.66C61.3203 352.09 61.5103 351.61 61.9003 351.22C62.2903 350.83 62.7703 350.64 63.3403 350.64C63.9103 350.64 64.3603 350.83 64.7503 351.22C65.1403 351.61 65.3303 352.09 65.3303 352.66C65.3303 353.23 65.1403 353.71 64.7503 354.1C64.3603 354.49 63.8903 354.68 63.3403 354.68C62.7903 354.68 62.2903 354.49 61.9003 354.1ZM64.8903 371.94H61.7403V356.7H64.8903V371.94Z" fill="#A057A2"/>
<path d="M72.1803 351.48H69.0303V371.95H72.1803V351.48Z" fill="#A057A2"/>
<path d="M90.05 356.7L80.71 379.11H77.44L80.54 371.69L74.54 356.7H78.05L82.34 368.32L86.79 356.7H90.05Z" fill="#A057A2"/>
<path d="M114.97 352.72V371.94H111.82V363.54H102.78V371.94H99.6201V352.72H102.78V360.96H111.82V352.72H114.97Z" fill="#A057A2"/>
<path d="M132.98 365.5H121.34C121.43 366.72 121.88 367.69 122.7 368.43C123.51 369.17 124.51 369.54 125.69 369.54C127.39 369.54 128.58 368.83 129.29 367.41H132.69C132.23 368.81 131.4 369.96 130.19 370.85C128.98 371.74 127.48 372.19 125.7 372.19C124.24 372.19 122.94 371.86 121.79 371.21C120.64 370.56 119.73 369.63 119.08 368.44C118.43 367.25 118.1 365.87 118.1 364.3C118.1 362.73 118.42 361.35 119.05 360.17C119.69 358.98 120.58 358.06 121.73 357.42C122.88 356.77 124.21 356.45 125.7 356.45C127.19 356.45 128.42 356.76 129.54 357.39C130.66 358.02 131.54 358.9 132.17 360.03C132.8 361.16 133.11 362.47 133.11 363.94C133.11 364.51 133.07 365.03 133 365.49M129.8 362.95C129.78 361.79 129.37 360.86 128.55 360.16C127.74 359.46 126.73 359.11 125.54 359.11C124.45 359.11 123.52 359.46 122.75 360.15C121.98 360.84 121.51 361.78 121.37 362.96H129.81L129.8 362.95Z" fill="#A057A2"/>
<path d="M136.09 360.19C136.73 359.01 137.59 358.09 138.69 357.44C139.79 356.79 141 356.46 142.33 356.46C143.53 356.46 144.58 356.7 145.47 357.17C146.36 357.64 147.08 358.23 147.61 358.93V356.72H150.79V371.96H147.61V369.69C147.07 370.41 146.35 371.01 145.43 371.49C144.51 371.97 143.46 372.21 142.28 372.21C140.97 372.21 139.77 371.87 138.68 371.2C137.59 370.53 136.73 369.59 136.09 368.38C135.45 367.17 135.14 365.8 135.14 364.27C135.14 362.74 135.46 361.38 136.09 360.2M146.96 361.57C146.53 360.8 145.96 360.21 145.26 359.8C144.56 359.4 143.8 359.19 142.99 359.19C142.18 359.19 141.42 359.39 140.72 359.79C140.02 360.19 139.45 360.77 139.02 361.53C138.59 362.3 138.37 363.2 138.37 364.26C138.37 365.32 138.59 366.23 139.02 367.02C139.45 367.81 140.02 368.42 140.73 368.83C141.44 369.25 142.19 369.45 142.98 369.45C143.77 369.45 144.55 369.25 145.25 368.84C145.95 368.44 146.52 367.84 146.95 367.06C147.38 366.28 147.6 365.36 147.6 364.31C147.6 363.26 147.38 362.35 146.95 361.57" fill="#A057A2"/>
<path d="M158.09 351.48H154.94V371.95H158.09V351.48Z" fill="#A057A2"/>
<path d="M165.92 359.28V367.72C165.92 368.29 166.05 368.7 166.32 368.95C166.59 369.2 167.04 369.32 167.69 369.32H169.63V371.95H167.14C165.72 371.95 164.63 371.62 163.88 370.95C163.12 370.29 162.75 369.21 162.75 367.71V359.27H160.95V356.7H162.75V352.91H165.93V356.7H169.64V359.27H165.93L165.92 359.28Z" fill="#A057A2"/>
<path d="M183.52 357.2C184.43 357.7 185.15 358.44 185.68 359.41C186.21 360.39 186.47 361.57 186.47 362.95V371.94H183.35V363.42C183.35 362.05 183.01 361.01 182.33 360.28C181.65 359.55 180.72 359.19 179.54 359.19C178.36 359.19 177.42 359.55 176.73 360.28C176.04 361.01 175.69 362.05 175.69 363.42V371.94H172.54V351.47H175.69V358.47C176.22 357.83 176.9 357.33 177.72 356.98C178.54 356.63 179.44 356.46 180.42 356.46C181.58 356.46 182.62 356.71 183.53 357.21" fill="#A057A2"/>
<path d="M197.93 357.23C198.81 355.74 199.99 354.57 201.5 353.73C203 352.89 204.65 352.47 206.44 352.47C208.49 352.47 210.31 352.97 211.9 353.98C213.5 354.99 214.65 356.41 215.37 358.25H211.58C211.08 357.24 210.39 356.48 209.51 355.98C208.62 355.48 207.6 355.23 206.44 355.23C205.17 355.23 204.03 355.52 203.04 356.09C202.04 356.66 201.26 357.48 200.7 358.55C200.14 359.62 199.86 360.87 199.86 362.28C199.86 363.69 200.14 364.94 200.7 366.01C201.26 367.08 202.04 367.9 203.04 368.49C204.04 369.07 205.17 369.36 206.44 369.36C207.6 369.36 208.62 369.11 209.51 368.61C210.4 368.11 211.09 367.36 211.58 366.34H215.37C214.65 368.18 213.49 369.6 211.9 370.6C210.31 371.59 208.48 372.09 206.44 372.09C204.63 372.09 202.98 371.67 201.49 370.83C200 369.99 198.81 368.83 197.94 367.33C197.06 365.84 196.63 364.15 196.63 362.27C196.63 360.39 197.07 358.7 197.94 357.21" fill="#A057A2"/>
<path d="M218.95 360.19C219.59 359.01 220.45 358.09 221.55 357.44C222.65 356.79 223.86 356.46 225.19 356.46C226.39 356.46 227.44 356.7 228.33 357.17C229.22 357.64 229.94 358.23 230.47 358.93V356.72H233.65V371.96H230.47V369.69C229.93 370.41 229.21 371.01 228.29 371.49C227.37 371.97 226.32 372.21 225.14 372.21C223.83 372.21 222.63 371.87 221.54 371.2C220.45 370.53 219.59 369.59 218.95 368.38C218.31 367.17 218 365.8 218 364.27C218 362.74 218.32 361.38 218.95 360.2M229.82 361.57C229.39 360.8 228.82 360.21 228.12 359.8C227.42 359.4 226.66 359.19 225.85 359.19C225.04 359.19 224.28 359.39 223.58 359.79C222.88 360.19 222.31 360.77 221.88 361.53C221.45 362.3 221.23 363.2 221.23 364.26C221.23 365.32 221.45 366.23 221.88 367.02C222.31 367.81 222.89 368.42 223.59 368.83C224.3 369.25 225.05 369.45 225.84 369.45C226.63 369.45 227.41 369.25 228.11 368.84C228.81 368.44 229.38 367.84 229.81 367.06C230.24 366.28 230.46 365.36 230.46 364.31C230.46 363.26 230.24 362.35 229.81 361.57" fill="#A057A2"/>
<path d="M242.79 357.1C243.55 356.67 244.46 356.45 245.51 356.45V359.71H244.71C243.47 359.71 242.54 360.02 241.9 360.65C241.26 361.28 240.95 362.36 240.95 363.91V371.93H237.8V356.69H240.95V358.9C241.41 358.13 242.02 357.52 242.79 357.09" fill="#A057A2"/>
<path d="M262.28 365.5H250.64C250.73 366.72 251.18 367.69 252 368.43C252.81 369.17 253.81 369.54 254.99 369.54C256.69 369.54 257.88 368.83 258.59 367.41H261.99C261.53 368.81 260.7 369.96 259.49 370.85C258.28 371.74 256.78 372.19 255 372.19C253.54 372.19 252.24 371.86 251.09 371.21C249.94 370.56 249.03 369.63 248.38 368.44C247.73 367.25 247.4 365.87 247.4 364.3C247.4 362.73 247.72 361.35 248.35 360.17C248.99 358.98 249.88 358.06 251.03 357.42C252.18 356.77 253.51 356.45 255 356.45C256.49 356.45 257.72 356.76 258.84 357.39C259.96 358.02 260.84 358.9 261.47 360.03C262.1 361.16 262.41 362.47 262.41 363.94C262.41 364.51 262.37 365.03 262.3 365.49M259.1 362.95C259.08 361.79 258.67 360.86 257.85 360.16C257.04 359.46 256.03 359.11 254.84 359.11C253.75 359.11 252.82 359.46 252.05 360.15C251.28 360.84 250.81 361.78 250.67 362.96H259.11L259.1 362.95Z" fill="#A057A2"/>
<path d="M1.06006 257.01L36.3601 292.6L71.5201 257.01V337.95H56.8801V289.01L36.3601 310.25L15.7001 289.01V337.95H1.06006V257.01Z" fill="#A057A2"/>
<path d="M105.84 258.3H91.04V337.95H105.84V258.3Z" fill="#A057A2"/>
<path d="M139.83 289.3V337.95H125.19V257.01L176.42 307.24V258.59H191.06V339.53L139.83 289.3Z" fill="#A057A2"/>
<path d="M225.79 272.22H202.54V258.3H263.68V272.22H240.43V337.95H225.79V272.22Z" fill="#A057A2"/>
</svg>
